<svg version="1.1" id="Layer_1" xmlns="http://www.w3.org/2000/svg" xmlns:xlink="http://www.w3.org/1999/xlink" x="0px" y="0px"
	 width="100%" viewBox="0 0 616 212" enable-background="new 0 0 616 212" xml:space="preserve">
<path fill="#FFFFFF" opacity="1.000000" stroke="none" 
	d="
M436.000000,213.000000 
	C290.666687,213.000000 145.833374,213.000000 1.000039,213.000000 
	C1.000026,142.333359 1.000026,71.666718 1.000013,1.000058 
	C206.333298,1.000039 411.666595,1.000039 616.999878,1.000019 
	C616.999939,71.666603 616.999939,142.333206 617.000000,212.999908 
	C556.833313,213.000000 496.666656,213.000000 436.000000,213.000000 
M81.522148,130.016022 
	C85.601715,135.484863 89.628983,140.994324 93.813972,146.381271 
	C94.486778,147.247314 95.863358,147.566605 96.914597,148.138657 
	C97.371117,147.150742 98.059349,146.200699 98.228500,145.165817 
	C98.467590,143.703018 98.339912,142.177521 98.340172,140.678833 
	C98.343872,119.356926 98.342705,98.035019 98.342712,76.713112 
	C98.342712,74.950546 98.342712,73.187988 98.342712,70.967056 
	C100.819313,70.967056 102.622803,70.967056 104.426300,70.967056 
	C128.746597,70.967049 153.066895,70.967384 177.387192,70.966011 
	C178.553024,70.965950 179.805969,71.212700 180.858078,70.862709 
	C181.754181,70.564613 182.419144,69.571640 183.186356,68.886078 
	C182.370972,68.242416 181.641922,67.366547 180.715302,67.021988 
	C179.831696,66.693436 178.742126,66.903076 177.743103,66.902962 
	C151.757034,66.900047 125.770439,66.983070 99.785408,66.818977 
	C95.488632,66.791847 93.976952,67.981575 94.021233,72.449188 
	C94.225960,93.102753 94.116646,113.759499 94.100006,134.415070 
	C94.098900,135.787918 93.932976,137.160645 93.776459,139.567596 
	C83.994286,126.435532 74.875671,114.193573 65.756287,101.952194 
	C57.604095,91.009117 49.476158,80.047714 41.252865,69.158333 
	C40.561600,68.242958 39.227516,67.813026 38.192085,67.157555 
	C37.628170,68.261322 36.934811,69.321877 36.546749,70.484344 
	C36.296234,71.234772 36.490063,72.134575 36.490040,72.967438 
	C36.489479,95.955116 36.488472,118.942802 36.492912,141.930481 
	C36.493141,143.095490 36.253357,144.371780 36.648254,145.394302 
	C37.045097,146.421860 38.096180,147.196762 38.860558,148.082382 
	C39.495541,147.239944 40.405327,146.480820 40.692627,145.532990 
	C41.016983,144.462936 40.788589,143.223236 40.788670,142.057312 
	C40.790104,121.734871 40.784447,101.412422 40.800457,81.089996 
	C40.801643,79.585793 40.955822,78.081703 41.092056,75.614395 
	C54.891747,94.212105 67.974289,111.843323 81.522148,130.016022 
M401.905273,87.583595 
	C401.894287,85.084763 402.054688,82.566643 401.776733,80.097862 
	C401.683014,79.265175 400.477509,78.557655 399.780121,77.792946 
	C399.160492,78.613266 398.266479,79.352264 397.992889,80.275162 
	C397.674255,81.350197 397.888672,82.586143 397.888550,83.752258 
	C397.886444,102.079720 397.887085,120.407173 397.887054,138.734634 
	C397.887054,140.480499 397.887054,142.226349 397.887054,143.951157 
	C396.427063,144.131668 395.771759,144.283249 395.116394,144.283524 
	C371.290741,144.293625 347.465088,144.313416 323.639496,144.275391 
	C314.646301,144.261047 306.789551,141.066467 299.695862,135.631332 
	C298.630280,134.814911 296.867554,134.908340 295.427338,134.580887 
	C295.955536,135.921387 296.111755,137.680710 297.072601,138.534058 
	C303.077881,143.867462 310.192719,147.695541 318.145203,147.864349 
	C344.784912,148.429840 371.438293,148.343536 398.086304,148.532440 
	C402.129150,148.561096 401.920654,145.816406 401.917114,143.040146 
	C401.893951,124.879333 401.905212,106.718475 401.905273,87.583595 
M482.146545,67.185059 
	C477.739380,63.660675 477.606018,68.421715 476.792542,70.320526 
	C467.893951,91.091537 459.187164,111.944748 450.438934,132.780090 
	C448.767090,136.761871 447.020386,140.720551 445.589905,144.788940 
	C445.272583,145.691345 446.147217,147.012863 446.473022,148.141388 
	C447.364319,147.578537 448.487183,147.193420 449.089478,146.408737 
	C449.877747,145.381729 450.289154,144.053497 450.803467,142.829956 
	C457.503387,126.891304 464.188568,110.946434 470.886841,95.007088 
	C473.824799,88.015862 476.784149,81.033623 480.107056,73.163177 
	C481.256927,75.707298 482.017365,77.287880 482.694489,78.903381 
	C491.879974,100.817589 501.020905,122.750664 510.308990,144.621262 
	C510.894806,146.000656 512.606201,146.902039 513.793945,148.025803 
	C513.917664,146.416611 514.629150,144.563736 514.078064,143.234299 
	C503.645691,118.069275 493.064209,92.966064 482.146545,67.185059 
M561.110107,134.486801 
	C561.110291,137.649261 560.924011,140.827866 561.195679,143.966812 
	C561.316589,145.364304 562.360229,146.681961 562.984985,148.035828 
	C563.769409,146.665115 565.203003,145.308624 565.233398,143.921432 
	C565.437195,134.604950 565.163635,125.276253 565.459839,115.964729 
	C565.543152,113.346275 566.442505,110.366074 567.945679,108.244957 
	C576.209045,96.584167 584.840027,85.184349 593.166138,73.566895 
	C594.340454,71.928352 594.535034,69.587662 595.183044,67.571953 
	C593.375854,68.770180 591.069763,69.593231 589.841370,71.226730 
	C580.981689,83.008232 572.340271,94.953888 563.343994,107.237595 
	C561.835266,105.270737 560.606750,103.731468 559.444458,102.143768 
	C551.488586,91.276115 543.590637,80.365410 535.533142,69.573776 
	C534.709778,68.471016 532.956055,68.062927 531.634033,67.332497 
	C531.826294,68.903969 531.494690,70.842140 532.296265,71.987137 
	C537.348877,79.204803 542.073547,86.778831 548.000854,93.229584 
	C558.650574,104.819786 563.682251,117.807487 561.110107,134.486801 
M298.659210,79.356476 
	C295.731171,90.405602 298.545013,97.345291 308.831970,102.205353 
	C316.016479,105.599655 323.622437,108.098946 331.027069,111.031021 
	C341.728058,115.268387 348.077881,122.118797 346.011383,132.136353 
	C345.813324,133.096359 346.866638,134.314499 347.339020,135.412796 
	C348.234650,134.417526 349.986633,133.321655 349.883453,132.443726 
	C349.319824,127.645752 349.227753,122.460510 347.222076,118.240936 
	C344.147888,111.773438 337.412170,109.127716 331.052887,106.548500 
	C323.679871,103.558151 316.156708,100.902542 308.934448,97.587967 
	C303.642029,95.159088 301.096008,90.664276 301.755402,84.590569 
	C302.427429,78.400246 305.891571,74.733490 311.659607,72.859505 
	C322.916473,69.202194 333.225708,70.982430 342.811554,77.864059 
	C344.044922,78.749481 345.886078,78.788277 347.445709,79.219261 
	C346.716980,77.640778 346.412872,75.511574 345.192535,74.570648 
	C335.141846,66.821327 323.797638,65.198837 311.704529,68.343002 
	C305.984406,69.830215 301.552979,73.166023 298.659210,79.356476 
M254.908752,129.630188 
	C256.224670,131.347977 257.524323,133.078537 258.859833,134.780975 
	C261.838135,138.577682 264.718323,142.462402 267.899994,146.081345 
	C268.759857,147.059357 270.555267,147.214920 271.921234,147.747986 
	C271.682220,146.444580 271.664612,145.042969 271.142120,143.865326 
	C270.616882,142.681534 269.605591,141.707733 268.779297,140.664062 
	C250.082718,117.048660 231.403717,93.419205 212.620987,69.872505 
	C211.655884,68.662621 209.795792,68.166672 208.352386,67.338326 
	C208.719238,69.025208 208.570847,71.116585 209.530060,72.338440 
	C224.426086,91.313042 239.465576,110.175011 254.908752,129.630188 
M369.023773,70.021729 
	C369.601868,70.312897 370.179169,70.856781 370.758179,70.858620 
	C389.889832,70.919365 409.021790,70.957420 428.152985,70.857178 
	C429.096344,70.852234 430.032990,69.573997 430.972778,68.888649 
	C429.650177,68.231117 428.331543,67.010330 427.004425,67.001068 
	C408.870941,66.874474 390.735931,66.865189 372.602905,67.018730 
	C371.280304,67.029922 369.970215,68.519974 369.023773,70.021729 
M164.498779,144.280487 
	C156.170776,144.280502 147.841568,144.204941 139.515732,144.339081 
	C137.670853,144.368805 135.837891,145.139053 133.999451,145.568329 
	C134.022720,146.129364 134.046005,146.690399 134.069275,147.251434 
	C135.203644,147.686447 136.335724,148.492981 137.472717,148.500000 
	C151.629684,148.587479 165.787888,148.608719 179.943970,148.467712 
	C181.109070,148.456116 182.261169,147.139633 183.419312,146.429443 
	C182.275589,145.718887 181.159317,144.453064 179.983337,144.394913 
	C175.164703,144.156631 170.327850,144.286499 164.498779,144.280487 
M162.498810,108.545311 
	C169.221344,108.107292 176.129364,109.536865 182.800949,106.659637 
	C181.359360,105.204018 179.832764,104.268982 178.298141,104.255600 
	C164.987442,104.139519 151.674652,104.130501 138.364563,104.277542 
	C136.998367,104.292641 135.645767,105.535645 134.286850,106.208862 
	C135.703415,106.986229 137.101471,108.393440 138.539658,108.435730 
	C146.187302,108.660614 153.845016,108.543381 162.498810,108.545311 
M207.817612,147.834854 
	C216.319275,137.234711 224.867599,126.671112 233.245499,115.974022 
	C234.025177,114.978500 233.724686,113.136993 233.925735,111.688293 
	C232.590408,112.322098 230.826767,112.608231 229.986252,113.643692 
	C221.943649,123.551765 214.025238,133.561584 206.157990,143.610168 
	C204.890778,145.228714 203.141281,147.375870 207.817612,147.834854 
M243.030579,99.395981 
	C244.490936,98.957199 246.518478,98.984871 247.322937,98.006691 
	C254.485306,89.297531 261.486023,80.452545 268.362152,71.515091 
	C269.097198,70.559708 268.733582,68.759071 268.879608,67.350540 
	C267.669952,67.905212 266.066315,68.139084 265.312531,69.064911 
	C258.820953,77.037888 252.447662,85.108398 246.127838,93.218971 
	C244.838562,94.873589 243.922104,96.818718 243.030579,99.395981 
M490.941956,126.572044 
	C492.562195,126.185364 494.182434,125.798691 495.802673,125.412010 
	C495.868896,124.939041 495.935150,124.466072 496.001373,123.993103 
	C494.839386,123.426582 493.685577,122.389381 492.514130,122.369118 
	C484.243164,122.226013 475.966553,122.206764 467.697601,122.398354 
	C466.661987,122.422356 465.660339,123.911804 464.642975,124.722244 
	C465.667267,125.336235 466.680847,126.460747 467.717529,126.482422 
	C475.160461,126.638000 482.608124,126.569572 490.941956,126.572044 
z"/>
<path fill="#635BED" opacity="1.000000" stroke="none" 
	d="
M81.289490,129.745270 
	C67.974289,111.843323 54.891747,94.212105 41.092056,75.614395 
	C40.955822,78.081703 40.801643,79.585793 40.800457,81.089996 
	C40.784447,101.412422 40.790104,121.734871 40.788670,142.057312 
	C40.788589,143.223236 41.016983,144.462936 40.692627,145.532990 
	C40.405327,146.480820 39.495541,147.239944 38.860558,148.082382 
	C38.096180,147.196762 37.045097,146.421860 36.648254,145.394302 
	C36.253357,144.371780 36.493141,143.095490 36.492912,141.930481 
	C36.488472,118.942802 36.489479,95.955116 36.490040,72.967438 
	C36.490063,72.134575 36.296234,71.234772 36.546749,70.484344 
	C36.934811,69.321877 37.628170,68.261322 38.192085,67.157555 
	C39.227516,67.813026 40.561600,68.242958 41.252865,69.158333 
	C49.476158,80.047714 57.604095,91.009117 65.756287,101.952194 
	C74.875671,114.193573 83.994286,126.435532 93.776459,139.567596 
	C93.932976,137.160645 94.098900,135.787918 94.100006,134.415070 
	C94.116646,113.759499 94.225960,93.102753 94.021233,72.449188 
	C93.976952,67.981575 95.488632,66.791847 99.785408,66.818977 
	C125.770439,66.983070 151.757034,66.900047 177.743103,66.902962 
	C178.742126,66.903076 179.831696,66.693436 180.715302,67.021988 
	C181.641922,67.366547 182.370972,68.242416 183.186356,68.886078 
	C182.419144,69.571640 181.754181,70.564613 180.858078,70.862709 
	C179.805969,71.212700 178.553024,70.965950 177.387192,70.966011 
	C153.066895,70.967384 128.746597,70.967049 104.426300,70.967056 
	C102.622803,70.967056 100.819313,70.967056 98.342712,70.967056 
	C98.342712,73.187988 98.342712,74.950546 98.342712,76.713112 
	C98.342705,98.035019 98.343872,119.356926 98.340172,140.678833 
	C98.339912,142.177521 98.467590,143.703018 98.228500,145.165817 
	C98.059349,146.200699 97.371117,147.150742 96.914597,148.138657 
	C95.863358,147.566605 94.486778,147.247314 93.813972,146.381271 
	C89.628983,140.994324 85.601715,135.484863 81.289490,129.745270 
z"/>
<path fill="#6760EE" opacity="1.000000" stroke="none" 
	d="
M401.905243,88.070618 
	C401.905212,106.718475 401.893951,124.879333 401.917114,143.040146 
	C401.920654,145.816406 402.129150,148.561096 398.086304,148.532440 
	C371.438293,148.343536 344.784912,148.429840 318.145203,147.864349 
	C310.192719,147.695541 303.077881,143.867462 297.072601,138.534058 
	C296.111755,137.680710 295.955536,135.921387 295.427338,134.580872 
	C296.867554,134.908340 298.630280,134.814911 299.695862,135.631332 
	C306.789551,141.066467 314.646301,144.261047 323.639496,144.275391 
	C347.465088,144.313416 371.290741,144.293625 395.116394,144.283524 
	C395.771759,144.283249 396.427063,144.131668 397.887054,143.951157 
	C397.887054,142.226349 397.887054,140.480499 397.887054,138.734634 
	C397.887085,120.407173 397.886444,102.079720 397.888550,83.752258 
	C397.888672,82.586143 397.674255,81.350197 397.992889,80.275162 
	C398.266479,79.352264 399.160492,78.613266 399.780090,77.792938 
	C400.477509,78.557655 401.683014,79.265175 401.776733,80.097862 
	C402.054688,82.566643 401.894287,85.084763 401.905243,88.070618 
z"/>
<path fill="#635BED" opacity="1.000000" stroke="none" 
	d="
M482.330139,67.517525 
	C493.064209,92.966064 503.645691,118.069275 514.078064,143.234299 
	C514.629150,144.563736 513.917664,146.416611 513.793945,148.025803 
	C512.606201,146.902039 510.894806,146.000656 510.308990,144.621262 
	C501.020905,122.750664 491.879974,100.817589 482.694489,78.903381 
	C482.017365,77.287880 481.256927,75.707298 480.107056,73.163177 
	C476.784149,81.033623 473.824799,88.015862 470.886841,95.007088 
	C464.188568,110.946434 457.503387,126.891304 450.803467,142.829956 
	C450.289154,144.053497 449.877747,145.381729 449.089478,146.408737 
	C448.487183,147.193420 447.364319,147.578537 446.473022,148.141388 
	C446.147217,147.012863 445.272583,145.691345 445.589905,144.788940 
	C447.020386,140.720551 448.767090,136.761871 450.438934,132.780090 
	C459.187164,111.944748 467.893951,91.091537 476.792542,70.320526 
	C477.606018,68.421715 477.739380,63.660675 482.330139,67.517525 
z"/>
<path fill="#635CED" opacity="1.000000" stroke="none" 
	d="
M561.110168,133.989471 
	C563.682251,117.807487 558.650574,104.819786 548.000854,93.229584 
	C542.073547,86.778831 537.348877,79.204803 532.296265,71.987137 
	C531.494690,70.842140 531.826294,68.903969 531.634033,67.332497 
	C532.956055,68.062927 534.709778,68.471016 535.533142,69.573776 
	C543.590637,80.365410 551.488586,91.276115 559.444458,102.143768 
	C560.606750,103.731468 561.835266,105.270737 563.343994,107.237595 
	C572.340271,94.953888 580.981689,83.008232 589.841370,71.226730 
	C591.069763,69.593231 593.375854,68.770180 595.183044,67.571960 
	C594.535034,69.587662 594.340454,71.928352 593.166138,73.566895 
	C584.840027,85.184349 576.209045,96.584167 567.945679,108.244957 
	C566.442505,110.366074 565.543152,113.346275 565.459839,115.964729 
	C565.163635,125.276253 565.437195,134.604950 565.233398,143.921432 
	C565.203003,145.308624 563.769409,146.665115 562.984985,148.035828 
	C562.360229,146.681961 561.316589,145.364304 561.195679,143.966812 
	C560.924011,140.827866 561.110291,137.649261 561.110168,133.989471 
z"/>
<path fill="#665EED" opacity="1.000000" stroke="none" 
	d="
M298.808777,79.001389 
	C301.552979,73.166023 305.984406,69.830215 311.704529,68.343002 
	C323.797638,65.198837 335.141846,66.821327 345.192535,74.570648 
	C346.412872,75.511574 346.716980,77.640778 347.445679,79.219269 
	C345.886078,78.788277 344.044922,78.749481 342.811554,77.864059 
	C333.225708,70.982430 322.916473,69.202194 311.659607,72.859505 
	C305.891571,74.733490 302.427429,78.400246 301.755402,84.590569 
	C301.096008,90.664276 303.642029,95.159088 308.934448,97.587967 
	C316.156708,100.902542 323.679871,103.558151 331.052887,106.548500 
	C337.412170,109.127716 344.147888,111.773438 347.222076,118.240936 
	C349.227753,122.460510 349.319824,127.645752 349.883453,132.443726 
	C349.986633,133.321655 348.234650,134.417526 347.339020,135.412811 
	C346.866638,134.314499 345.813324,133.096359 346.011383,132.136353 
	C348.077881,122.118797 341.728058,115.268387 331.027069,111.031021 
	C323.622437,108.098946 316.016479,105.599655 308.831970,102.205353 
	C298.545013,97.345291 295.731171,90.405602 298.808777,79.001389 
z"/>
<path fill="#665FEE" opacity="1.000000" stroke="none" 
	d="
M254.690323,129.346619 
	C239.465576,110.175011 224.426086,91.313042 209.530060,72.338440 
	C208.570847,71.116585 208.719238,69.025208 208.352386,67.338326 
	C209.795792,68.166672 211.655884,68.662621 212.620987,69.872505 
	C231.403717,93.419205 250.082718,117.048660 268.779297,140.664062 
	C269.605591,141.707733 270.616882,142.681534 271.142120,143.865326 
	C271.664612,145.042969 271.682220,146.444580 271.921234,147.747986 
	C270.555267,147.214920 268.759857,147.059357 267.899994,146.081345 
	C264.718323,142.462402 261.838135,138.577682 258.859833,134.780975 
	C257.524323,133.078537 256.224670,131.347977 254.690323,129.346619 
z"/>
<path fill="#5E57ED" opacity="1.000000" stroke="none" 
	d="
M368.839050,69.672104 
	C369.970215,68.519974 371.280304,67.029922 372.602905,67.018730 
	C390.735931,66.865189 408.870941,66.874474 427.004425,67.001068 
	C428.331543,67.010330 429.650177,68.231117 430.972778,68.888657 
	C430.032990,69.573997 429.096344,70.852234 428.152985,70.857178 
	C409.021790,70.957420 389.889832,70.919365 370.758179,70.858620 
	C370.179169,70.856781 369.601868,70.312897 368.839050,69.672104 
z"/>
<path fill="#6C65EE" opacity="1.000000" stroke="none" 
	d="
M164.998245,144.280670 
	C170.327850,144.286499 175.164703,144.156631 179.983337,144.394913 
	C181.159317,144.453064 182.275589,145.718887 183.419312,146.429443 
	C182.261169,147.139633 181.109070,148.456116 179.943970,148.467712 
	C165.787888,148.608719 151.629684,148.587479 137.472717,148.500000 
	C136.335724,148.492981 135.203644,147.686447 134.069275,147.251434 
	C134.046005,146.690399 134.022720,146.129364 133.999451,145.568329 
	C135.837891,145.139053 137.670853,144.368805 139.515732,144.339081 
	C147.841568,144.204941 156.170776,144.280502 164.998245,144.280670 
z"/>
<path fill="#6861EE" opacity="1.000000" stroke="none" 
	d="
M161.999023,108.544952 
	C153.845016,108.543381 146.187302,108.660614 138.539658,108.435730 
	C137.101471,108.393440 135.703415,106.986229 134.286850,106.208862 
	C135.645767,105.535645 136.998367,104.292641 138.364563,104.277542 
	C151.674652,104.130501 164.987442,104.139519 178.298141,104.255600 
	C179.832764,104.268982 181.359360,105.204018 182.800949,106.659637 
	C176.129364,109.536865 169.221344,108.107292 161.999023,108.544952 
z"/>
<path fill="#645DED" opacity="1.000000" stroke="none" 
	d="
M207.454376,147.972656 
	C203.141281,147.375870 204.890778,145.228714 206.157990,143.610168 
	C214.025238,133.561584 221.943649,123.551765 229.986252,113.643692 
	C230.826767,112.608231 232.590408,112.322098 233.925735,111.688293 
	C233.724686,113.136993 234.025177,114.978500 233.245499,115.974022 
	C224.867599,126.671112 216.319275,137.234711 207.454376,147.972656 
z"/>
<path fill="#625BED" opacity="1.000000" stroke="none" 
	d="
M242.932175,99.012955 
	C243.922104,96.818718 244.838562,94.873589 246.127838,93.218971 
	C252.447662,85.108398 258.820953,77.037888 265.312531,69.064911 
	C266.066315,68.139084 267.669952,67.905212 268.879608,67.350540 
	C268.733582,68.759071 269.097198,70.559708 268.362152,71.515091 
	C261.486023,80.452545 254.485306,89.297531 247.322937,98.006691 
	C246.518478,98.984871 244.490936,98.957199 242.932175,99.012955 
z"/>
<path fill="#6C65EE" opacity="1.000000" stroke="none" 
	d="
M490.498108,126.572144 
	C482.608124,126.569572 475.160461,126.638000 467.717529,126.482422 
	C466.680847,126.460747 465.667267,125.336235 464.642975,124.722244 
	C465.660339,123.911804 466.661987,122.422356 467.697601,122.398354 
	C475.966553,122.206764 484.243164,122.226013 492.514130,122.369118 
	C493.685577,122.389381 494.839386,123.426582 496.001373,123.993103 
	C495.935150,124.466072 495.868896,124.939041 495.802673,125.412010 
	C494.182434,125.798691 492.562195,126.185364 490.498108,126.572144 
z"/>
</svg>